# xmcd
#
# Track frame offsets:
#	150
#	21510
#	43837
#	63265
#	85397
#	106275
#	127543
#	151610
#	163107
#	185883
#	209505
#	240661
#	261349
#	283477
#
# Disc length: 4153 seconds
#
# Revision: 1
# Processed by: cddbd v1.5.2PL0 Copyright (c) Steve Scherf et al.
# Submitted via: audiograbber 1.83.01
#
DISCID=cb10370e
DTITLE=Walter Trout - Livin' Every Day
DYEAR=1999
DGENRE=Blues
TTITLE0=Livin' Every Day
TTITLE1=Let Me Know
TTITLE2=Playing With A Losin' Hand
TTITLE3=Sweet Butterfly (Sophie's Son
TTITLE4=I Thought I Heard The Devil
TTITLE5=Through The Eyes Of Love
TTITLE6=Nothin' But The Blues
TTITLE7=City Man
TTITLE8=Fool For Love
TTITLE9=Say What You Mean
TTITLE10=Apparitions
TTITLE11=Junkyards In Your Eyes
TTITLE12=The Love That We Once Knew
TTITLE13=Prisoner Of A Dream
EXTD=
EXTT0=
EXTT1=
EXTT2=
EXTT3=
EXTT4=
EXTT5=
EXTT6=
EXTT7=
EXTT8=
EXTT9=
EXTT10=
EXTT11=
EXTT12=
EXTT13=
PLAYORDER=
